<svg width="24" height="22" viewBox="0 0 24 22" fill="none" xmlns="http://www.w3.org/2000/svg">
<g filter="url(#filter0_d_1_25)">
<path fill-rule="evenodd" clip-rule="evenodd" d="M10.5003 1.91687e-08C9.14485 0.000115492 7.80912 0.324364 6.60451 0.945694C5.3999 1.56702 4.36135 2.46742 3.57549 3.57175C2.78963 4.67609 2.27926 5.95235 2.08696 7.29404C1.89466 8.63574 2.026 10.004 2.47003 11.2846C2.91406 12.5652 3.6579 13.7211 4.63949 14.6557C5.62108 15.5904 6.81196 16.2768 8.11277 16.6576C9.41358 17.0384 10.7866 17.1026 12.1173 16.8449C13.448 16.5872 14.6977 16.015 15.7623 15.176L19.4143 18.828C19.6029 19.0102 19.8555 19.111 20.1177 19.1087C20.3799 19.1064 20.6307 19.0012 20.8161 18.8158C21.0015 18.6304 21.1066 18.3796 21.1089 18.1174C21.1112 17.8552 21.0104 17.6026 20.8283 17.414L17.1763 13.762C18.1642 12.5086 18.7794 11.0024 18.9514 9.41573C19.1233 7.82905 18.8451 6.22602 18.1485 4.79009C17.4519 3.35417 16.3651 2.14336 15.0126 1.29623C13.66 0.449106 12.0962 -0.000107143 10.5003 1.91687e-08ZM4.00025 8.5C4.00025 6.77609 4.68507 5.12279 5.90406 3.90381C7.12305 2.68482 8.77635 2 10.5003 2C12.2242 2 13.8775 2.68482 15.0964 3.90381C16.3154 5.12279 17.0003 6.77609 17.0003 8.5C17.0003 10.2239 16.3154 11.8772 15.0964 13.0962C13.8775 14.3152 12.2242 15 10.5003 15C8.77635 15 7.12305 14.3152 5.90406 13.0962C4.68507 11.8772 4.00025 10.2239 4.00025 8.5Z" fill="#8B8E9C"/>
</g>
<defs>
<filter id="filter0_d_1_25" x="-1.99902" y="0" width="27.1079" height="27.1088" filterUnits="userSpaceOnUse" color-interpolation-filters="sRGB">
<feFlood flood-opacity="0" result="BackgroundImageFix"/>
<feColorMatrix in="SourceAlpha" type="matrix" values="0 0 0 0 0 0 0 0 0 0 0 0 0 0 0 0 0 0 127 0" result="hardAlpha"/>
<feOffset dy="4"/>
<feGaussianBlur stdDeviation="2"/>
<feComposite in2="hardAlpha" operator="out"/>
<feColorMatrix type="matrix" values="0 0 0 0 0 0 0 0 0 0 0 0 0 0 0 0 0 0 0.25 0"/>
<feBlend mode="normal" in2="BackgroundImageFix" result="effect1_dropShadow_1_25"/>
<feBlend mode="normal" in="SourceGraphic" in2="effect1_dropShadow_1_25" result="shape"/>
</filter>
</defs>
</svg>
